<?xml version="1.0" encoding="UTF-8"?>
<svg id="Layer_3" data-name="Layer 3" xmlns="http://www.w3.org/2000/svg" viewBox="0 0 26.01 26.01">
  <defs>
    <style>
      .cls-1 {
        fill: #fff;
      }
    </style>
  </defs>
  <g id="onemoment">
    <path class="cls-1" d="M4.46,0c.46.17.33.6.45.99.45,1.4,2.46,1.37,2.89,0,.12-.38,0-.82.45-.99h2.84c.43.24.3.59.42.97.41,1.38,2.46,1.41,2.9.04.13-.4,0-.77.43-1.01h2.84c.46.17.33.63.47,1.03.48,1.35,2.43,1.33,2.88-.04.13-.39,0-.82.45-.99h4.1c.21.13.32.22.36.48l-.02,3.98c-.11.44-.61.33-.97.45-1.4.46-1.37,2.47,0,2.89.48.15.93-.05.99.63.05.53.07,2.09,0,2.58s-.69.39-1.05.53c-1.32.48-1.3,2.42.04,2.87.43.14.96-.02,1.01.61.05.59.06,1.95,0,2.54-.07.62-.58.44-1.03.59-1.35.48-1.34,2.43.04,2.88.49.16.93-.05.99.63.08.91.09,2.85,0,3.75-.03.35-.18.5-.53.53-.91.09-2.85.08-3.75,0-.68-.06-.47-.5-.63-.99-.45-1.37-2.4-1.39-2.88-.04-.16.45.02.96-.59,1.03-.58.07-1.94.06-2.54,0s-.47-.55-.59-.98c-.41-1.37-2.41-1.41-2.88-.07-.13.36-.03.97-.53,1.05s-2.06.05-2.58,0c-.68-.06-.48-.51-.63-.99-.43-1.38-2.44-1.39-2.89,0-.12.36,0,.86-.45.97l-3.98.02c-.26-.03-.35-.15-.48-.36v-4.1c.17-.46.6-.33.99-.45,1.37-.45,1.38-2.4.04-2.88-.4-.14-.85,0-1.03-.47v-2.84c.24-.44.62-.3,1.01-.43,1.37-.44,1.35-2.48-.04-2.9-.39-.12-.74,0-.97-.42v-2.84c.17-.46.61-.33.99-.45,1.37-.43,1.4-2.44,0-2.89-.39-.13-.82,0-.99-.45V0h4.46Z"/>
  </g>
</svg>