<?xml version="1.0" encoding="UTF-8"?>
<svg id="Layer_3" data-name="Layer 3" xmlns="http://www.w3.org/2000/svg" viewBox="0 0 183.55 30.29">
  <defs>
    <style>
      .cls-1 {
        fill: #fff;
      }
    </style>
  </defs>
  <g id="onemoment">
    <g>
      <g>
        <path class="cls-1" d="M41.69,22.9c-1.61,0-3.01-.35-4.19-1.04-1.18-.69-2.09-1.66-2.72-2.89s-.95-2.68-.95-4.32.32-3.11.95-4.35c.63-1.24,1.54-2.2,2.72-2.89,1.18-.69,2.58-1.04,4.19-1.04s3.02.35,4.2,1.04c1.18.69,2.09,1.66,2.72,2.89.63,1.24.95,2.69.95,4.35s-.32,3.08-.95,4.32-1.54,2.2-2.72,2.89c-1.18.69-2.58,1.04-4.2,1.04ZM41.72,19.44c.73,0,1.35-.21,1.85-.62.5-.42.87-.99,1.12-1.71.25-.73.38-1.55.38-2.48s-.13-1.76-.38-2.48c-.25-.72-.63-1.28-1.12-1.69-.5-.41-1.11-.62-1.85-.62s-1.37.21-1.87.62c-.5.41-.88.97-1.13,1.69s-.38,1.54-.38,2.48.13,1.75.38,2.48.63,1.3,1.13,1.71c.5.42,1.12.62,1.87.62Z"/>
        <path class="cls-1" d="M55.96,13.33v9.25h-4.42V6.57h4.35v2.85h.16c.36-.94.94-1.69,1.73-2.23.79-.54,1.79-.82,2.98-.82,1.11,0,2.07.24,2.9.73.83.49,1.47,1.18,1.93,2.08.46.9.69,1.97.69,3.22v10.18h-4.42v-9.4c0-.97-.25-1.74-.76-2.3s-1.2-.84-2.09-.84c-.59,0-1.12.13-1.58.39s-.82.64-1.07,1.12c-.26.49-.39,1.07-.39,1.76Z"/>
        <path class="cls-1" d="M76.17,22.9c-1.64,0-3.06-.33-4.25-1-1.19-.67-2.11-1.62-2.74-2.86-.63-1.24-.95-2.7-.95-4.39s.32-3.08.95-4.33c.63-1.24,1.53-2.21,2.69-2.91,1.16-.7,2.52-1.04,4.09-1.04,1.06,0,2.05.17,2.96.51.92.34,1.72.85,2.41,1.52s1.22,1.52,1.6,2.54c.38,1.02.57,2.21.57,3.57v1.2h-13.52v-2.74h11.37l-2.06.72c0-.81-.12-1.52-.37-2.12s-.62-1.07-1.11-1.4c-.49-.33-1.1-.49-1.83-.49s-1.34.17-1.84.5-.89.79-1.15,1.36c-.27.57-.4,1.23-.4,1.98v1.93c0,.87.15,1.61.46,2.23s.73,1.09,1.28,1.42c.55.33,1.18.49,1.9.49.5,0,.95-.07,1.35-.21.4-.14.75-.35,1.04-.63.29-.28.51-.61.65-1l4.1.27c-.2.98-.62,1.84-1.25,2.57s-1.45,1.3-2.46,1.7c-1,.41-2.16.61-3.48.61Z"/>
        <path class="cls-1" d="M88.73,20.42c0,1.01.32,1.22,1.29,1.47.63.17.74.32.74.49,0,.21-.17.35-.38.35-.63,0-1.96-.14-2.94-.14-.91,0-2.07.14-2.8.14-.52,0-.67-.07-.67-.31,0-.28.11-.39.63-.53.98-.25,1.26-.35,1.26-1.33v-10.61c0-.7-.28-.98-.95-1.01-.56-.04-.7,0-.7-.28,0-.31.11-.28,1.79-1.01,2.14-.95,2.21-1.65,2.59-1.65.17,0,.28.07.28.77v1.54c0,.17.03.21.1.21.21.04,1.61-2.31,4.31-2.31s2.91,2.42,3.43,2.42,1.64-2.42,4.24-2.42c1.96,0,3.75,1.37,3.75,4.03v10.26c0,.74.17,1.09,1.12,1.37.67.21.95.25.95.53s-.21.35-.46.35c-.7,0-2.03-.14-3.05-.14-.84,0-2.17.14-2.7.14-.38,0-.56-.14-.56-.31,0-.35.42-.46.67-.53,1.08-.31,1.16-.46,1.16-1.75v-9.8c0-1.54-.77-2.38-2.17-2.38-1.58,0-2.94,1.44-2.94,2.87v9.1c0,1.43.17,1.82,1.22,2,.67.14.98.25.98.53,0,.17-.11.28-.42.28-.81,0-2.14-.14-3.22-.14-.67,0-2.07.14-2.77.14-.38,0-.46-.14-.46-.35,0-.25.18-.35.81-.49.49-.1.98-.31.98-1.12v-10.12c0-1.79-1.01-2.7-2.1-2.7-1.75,0-3.01,1.33-3.01,3.01v9.45Z"/>
        <path class="cls-1" d="M111.61,13.84c-.6,0-.74.11-.74,1.23,0,3.36,1.47,6.33,4.13,6.33,3.68,0,3.47-2.8,4.2-2.8.28,0,.38.14.38.42,0,.88-1.65,4.13-5.57,4.13-3.54,0-6.37-2.91-6.37-8.3,0-4.52,2.52-8.65,6.65-8.65,3.64,0,5.29,3.15,5.29,6.2,0,1.19-.28,1.44-1.05,1.44h-6.93ZM114.4,7.04c-2.91,0-3.4,4.52-3.4,5.22,0,.56.32.74,1.47.74,3.29,0,4.24-.46,4.24-2.49,0-1.47-.59-3.47-2.31-3.47Z"/>
        <path class="cls-1" d="M125.26,20.42c0,1.01.32,1.22,1.29,1.47.63.17.74.32.74.49,0,.21-.17.35-.38.35-.63,0-1.96-.14-2.94-.14-.91,0-2.07.14-2.8.14-.52,0-.67-.07-.67-.31,0-.28.11-.39.63-.53.98-.25,1.26-.35,1.26-1.33v-10.61c0-.7-.28-.98-.95-1.01-.56-.04-.7,0-.7-.28,0-.31.11-.28,1.79-1.01,2.14-.95,2.21-1.65,2.59-1.65.17,0,.28.07.28.77v1.54c0,.17.03.21.1.21.21.04,1.61-2.31,4.31-2.31s2.91,2.42,3.43,2.42,1.64-2.42,4.24-2.42c1.96,0,3.75,1.37,3.75,4.03v10.26c0,.74.17,1.09,1.12,1.37.67.21.95.25.95.53s-.21.35-.46.35c-.7,0-2.03-.14-3.05-.14-.84,0-2.17.14-2.7.14-.38,0-.56-.14-.56-.31,0-.35.42-.46.67-.53,1.08-.31,1.16-.46,1.16-1.75v-9.8c0-1.54-.77-2.38-2.17-2.38-1.58,0-2.94,1.44-2.94,2.87v9.1c0,1.43.17,1.82,1.22,2,.67.14.98.25.98.53,0,.17-.11.28-.42.28-.81,0-2.14-.14-3.22-.14-.67,0-2.07.14-2.77.14-.38,0-.46-.14-.46-.35,0-.25.18-.35.81-.49.49-.1.98-.31.98-1.12v-10.12c0-1.79-1.01-2.7-2.1-2.7-1.75,0-3.01,1.33-3.01,3.01v9.45Z"/>
        <path class="cls-1" d="M150.8,23.15c-3.88,0-6.72-3.96-6.72-8.47s2.84-8.47,6.72-8.47,6.72,3.96,6.72,8.47-2.83,8.47-6.72,8.47ZM154.3,14.68c0-3.25-1.23-7.63-3.5-7.63s-3.5,4.38-3.5,7.63,1.22,7.63,3.5,7.63,3.5-4.38,3.5-7.63Z"/>
        <path class="cls-1" d="M163.87,19.93c0,1.26.38,1.82,1.47,1.96,1.29.17,1.4.25,1.4.53,0,.14-.11.31-.38.31-.6,0-1.72-.14-3.78-.14-1.82,0-2.94.14-3.57.14-.24,0-.45-.07-.45-.28,0-.28.17-.39,1.05-.56,1.08-.21,1.19-.56,1.19-1.71v-9.98c0-.8-.67-.91-1.23-.98-.46-.07-.8-.14-.8-.42,0-.53.63-.32,2.7-1.47,1.43-.8,1.43-1.26,1.75-1.26.17,0,.25.28.25.84v2.73c0,.1.03.14.07.14.14,0,1.61-3.57,3.99-3.57,1.26,0,2.17,1.05,2.17,2.24,0,1.12-.63,2.31-1.72,2.31-.84,0-1.15-.42-1.33-1.05-.21-.7-.07-1.33-.67-1.33-1.19,0-2.1,2.1-2.1,4.55v7Z"/>
        <path class="cls-1" d="M173.75,15.17c-2.42-7.11-2.38-7.56-3.01-7.7-.31-.07-.53-.11-.53-.42,0-.25.14-.42.53-.42.35,0,1.19.14,2.56.14s2.38-.14,2.59-.14c.38,0,.56.11.56.39s-.18.35-.6.46c-1.05.24-1.33.38-1.33.98,0,.28.11.77,1.4,4.69,1.54,4.62,1.4,4.97,1.75,4.97.32,0,.35-.46.53-.95l2.31-7.46c.1-.42.24-.81.24-1.05,0-.7-.45-1.05-1.36-1.19-.49-.07-.63-.11-.63-.35,0-.35.18-.49.56-.49.42,0,.98.14,1.96.14,1.08,0,1.61-.14,1.89-.14s.38.17.38.35c0,.25-.21.46-.49.49-.67.1-1.08.98-1.47,2.17l-6.06,19.29c-.28.91-.49,1.37-1.82,1.37-1.4,0-1.58-.21-1.58-1.65s.1-1.65,1.65-1.65c1.4,0,1.61-.07,2.1-1.89l.56-2.03-2.7-7.91Z"/>
      </g>
      <path class="cls-1" d="M4.46,0c.46.17.33.6.45.99.45,1.4,2.46,1.37,2.89,0,.12-.38,0-.82.45-.99h2.84c.43.24.3.59.42.97.41,1.38,2.46,1.41,2.9.04.13-.4,0-.77.43-1.01h2.84c.46.17.33.63.47,1.03.48,1.35,2.43,1.33,2.88-.04.13-.39,0-.82.45-.99h4.1c.21.13.32.22.36.48l-.02,3.98c-.11.44-.61.33-.97.45-1.4.46-1.37,2.47,0,2.89.48.15.93-.05.99.63.05.53.07,2.09,0,2.58s-.69.39-1.05.53c-1.32.48-1.3,2.42.04,2.87.43.14.96-.02,1.01.61.05.59.06,1.95,0,2.54-.07.62-.58.44-1.03.59-1.35.48-1.34,2.43.04,2.88.49.16.93-.05.99.63.08.91.09,2.85,0,3.75-.03.35-.18.5-.53.53-.91.09-2.85.08-3.75,0-.68-.06-.47-.5-.63-.99-.45-1.37-2.4-1.39-2.88-.04-.16.45.02.96-.59,1.03-.58.07-1.94.06-2.54,0s-.47-.55-.59-.98c-.41-1.37-2.41-1.41-2.88-.07-.13.36-.03.97-.53,1.05s-2.06.05-2.58,0c-.68-.06-.48-.51-.63-.99-.43-1.38-2.44-1.39-2.89,0-.12.36,0,.86-.45.97l-3.98.02c-.26-.03-.35-.15-.48-.36v-4.1c.17-.46.6-.33.99-.45,1.37-.45,1.38-2.4.04-2.88-.4-.14-.85,0-1.03-.47v-2.84c.24-.44.62-.3,1.01-.43,1.37-.44,1.35-2.48-.04-2.9-.39-.12-.74,0-.97-.42v-2.84c.17-.46.61-.33.99-.45,1.37-.43,1.4-2.44,0-2.89-.39-.13-.82,0-.99-.45V0h4.46Z"/>
    </g>
  </g>
</svg>