<svg width="43" height="43" viewBox="0 0 43 43" fill="none" xmlns="http://www.w3.org/2000/svg">
<path d="M42.05 28.35L42.15 25.5C37.39 24.31 37.38 17.84 42.15 16.64L42.13 13.9C41.62 13.61 41.09 13.49 40.56 13.15C37.79 11.36 37.93 7.21 40.77 5.56C41.23 5.29 41.67 5.17 42.14 4.96V0H37.18C36.98 0.45 36.87 0.88 36.62 1.31C34.59 4.9 29.26 4.03 28.35 0.0899999L25.5 0C24.31 4.76 17.84 4.75 16.64 0L13.9 0.02C13.63 0.39 13.56 0.87 13.32 1.31C11.89 3.91 8.19 4.37 6.16 2.19C5.57 1.56 5.26 0.8 4.96 0H0V4.96C0.43 5.16 0.83 5.27 1.25 5.49C4.32 7.13 4.36 11.65 1.31 13.32C0.87 13.56 0.39 13.63 0.02 13.9L0 16.64C4.76 17.84 4.75 24.3 0 25.5L0.02 28.25C0.39 28.51 0.87 28.58 1.31 28.82C4.36 30.5 4.32 35.01 1.25 36.65C0.83 36.88 0.43 36.99 0 37.18V42.14H4.96C5.3 41.22 5.68 40.34 6.43 39.68C9.02 37.41 13.02 38.74 13.79 42.05L16.64 42.14C17.83 37.39 24.3 37.38 25.5 42.14H28.25C28.42 42.07 28.54 41.41 28.64 41.19C30.19 37.9 34.75 37.61 36.59 40.77C36.85 41.23 36.97 41.67 37.18 42.14H42.14V37.18C41.23 36.85 40.34 36.45 39.68 35.71C37.4 33.15 38.75 29.1 42.05 28.35ZM20.83 36.82C12.01 36.82 4.85 29.66 4.85 20.84C4.85 12.02 12.01 4.86 20.83 4.86C29.65 4.86 36.81 12.02 36.81 20.84C36.81 29.66 29.65 36.82 20.83 36.82Z" fill="white"/>
</svg>
