<svg width="1820" height="3030" viewBox="0 0 1820 3030" fill="none" xmlns="http://www.w3.org/2000/svg">
<path d="M260.753 0C261.475 35.2173 290.198 63.5203 325.634 63.5205C361.07 63.5205 389.794 35.2174 390.516 0H455.469C456.19 35.2174 484.915 63.5205 520.351 63.5205C555.786 63.5205 584.511 35.2174 585.232 0H650.186C650.907 35.2174 679.632 63.5205 715.067 63.5205C750.503 63.5203 779.227 35.2173 779.948 0H844.902C845.624 35.2173 874.348 63.5203 909.783 63.5205C945.219 63.5205 973.943 35.2174 974.665 0H1039.62C1040.34 35.2174 1069.06 63.5205 1104.5 63.5205C1139.94 63.5204 1168.66 35.2173 1169.38 0H1234.33C1235.06 35.2174 1263.78 63.5205 1299.22 63.5205C1334.65 63.5203 1363.38 35.2173 1364.1 0H1429.05C1429.77 35.2173 1458.5 63.5204 1493.93 63.5205C1529.37 63.5205 1558.09 35.2174 1558.81 0H1623.77V1.2959C1623.77 37.0894 1652.85 66.1133 1688.72 66.1133C1724.59 66.1132 1753.67 37.0893 1753.67 1.2959V0H1820V59.9199C1784.71 60.6401 1756.35 89.3037 1756.35 124.665C1756.35 160.026 1784.71 188.69 1820 189.41V244.001H1818.7C1782.83 244.001 1753.75 273.025 1753.75 308.818C1753.75 344.612 1782.83 373.636 1818.7 373.636H1820V428.226H1818.7C1782.83 428.226 1753.75 457.249 1753.75 493.043C1753.75 528.836 1782.83 557.86 1818.7 557.86H1820V619.046C1784.71 619.768 1756.35 648.492 1756.35 683.928C1756.35 690.927 1757.45 697.663 1759.5 703.975C1769.7 726.448 1792.37 742.085 1818.7 742.085H1820V803.515H1818.7C1784 803.515 1755.65 830.731 1753.84 864.977C1755.65 899.151 1784 926.311 1818.7 926.311H1820V988.127H1818.7C1784.07 988.127 1755.76 1015.24 1753.85 1049.4C1755.76 1083.48 1784.07 1110.54 1818.7 1110.54H1820V1172.74H1818.7C1784.13 1172.74 1755.87 1199.75 1753.86 1233.81C1755.87 1267.81 1784.13 1294.76 1818.7 1294.76H1820V1357.35H1818.7C1784.2 1357.35 1755.98 1384.26 1753.87 1418.23C1755.98 1452.13 1784.2 1478.99 1818.7 1478.99H1820V1541.96H1818.7C1784.27 1541.96 1756.08 1568.77 1753.88 1602.65C1756.08 1636.46 1784.27 1663.21 1818.7 1663.21H1820V1726.58H1818.7C1784.33 1726.58 1756.19 1753.28 1753.9 1787.07C1756.19 1820.79 1784.33 1847.44 1818.7 1847.44H1820V1911.19H1818.7C1784.4 1911.19 1756.3 1937.79 1753.91 1971.49C1756.3 2005.11 1784.4 2031.66 1818.7 2031.66H1820V2095.8H1818.7C1784.46 2095.8 1756.41 2122.3 1753.93 2155.91C1756.41 2189.44 1784.46 2215.89 1818.7 2215.89H1820V2280.42H1818.7C1784.53 2280.42 1756.51 2306.81 1753.94 2340.33C1756.51 2373.77 1784.53 2400.11 1818.7 2400.11H1820V2465.03H1818.7C1782.83 2465.03 1753.75 2494.11 1753.75 2529.98C1753.75 2565.85 1782.83 2594.93 1818.7 2594.93H1820V2649.64H1818.7C1782.83 2649.64 1753.75 2678.73 1753.75 2714.59C1753.75 2750.46 1782.83 2779.55 1818.7 2779.55H1820V2834.25H1818.7C1782.83 2834.25 1753.75 2863.34 1753.75 2899.21C1753.75 2935.08 1782.83 2964.16 1818.7 2964.16H1820V3029.19H1753.67C1752.95 2993.9 1724.23 2965.53 1688.79 2965.53C1653.36 2965.53 1624.63 2993.9 1623.91 3029.19H1558.96V3027.89C1558.96 2992.02 1529.87 2962.93 1494 2962.93C1458.14 2962.93 1429.05 2992.02 1429.05 3027.89V3029.19H1364.1V3027.89C1364.1 2992.02 1335.01 2962.93 1299.14 2962.93C1263.28 2962.93 1234.19 2992.02 1234.19 3027.89V3029.19H1169.24V3027.89C1169.24 2992.02 1140.15 2962.93 1104.28 2962.93C1068.41 2962.93 1039.33 2992.02 1039.33 3027.89V3029.19H974.376V3027.89C974.376 2992.02 945.292 2962.93 909.423 2962.93C873.554 2962.93 844.469 2992.02 844.469 3027.89V3029.19H779.516V3027.89C779.516 2992.02 750.43 2962.93 714.562 2962.93C678.693 2962.93 649.609 2992.02 649.608 3027.89V3029.19H584.654V3027.89C584.654 2992.02 555.57 2962.93 519.701 2962.93C483.832 2962.93 454.747 2992.02 454.747 3027.89V3029.19H389.794V3027.89C389.794 2992.02 360.709 2962.93 324.84 2962.93C288.971 2962.93 259.887 2992.02 259.887 3027.89V3029.19H194.933V3027.89C194.932 2992.02 165.848 2962.93 129.979 2962.93C94.1107 2962.93 65.0255 2992.02 65.0254 3027.89V3029.19H0V2964.23C35.8687 2964.23 64.9529 2935.15 64.9531 2899.28C64.9531 2863.41 35.8688 2834.33 0 2834.33V2779.76C35.8688 2779.76 64.9531 2750.68 64.9531 2714.81C64.9531 2678.94 35.8688 2649.86 0 2649.86V2595.3C35.8687 2595.3 64.9529 2566.21 64.9531 2530.34C64.9531 2494.47 35.8688 2465.39 0 2465.39V2400.18C34.0984 2400.18 62.0644 2373.95 64.7422 2340.61C62.0635 2307.2 34.0978 2280.92 0 2280.92V2216.1C34.1644 2216.1 62.1739 2189.77 64.7588 2156.34C62.1731 2122.84 34.1638 2096.45 0 2096.45V2032.02C34.2299 2032.02 62.2804 2005.59 64.7725 1972.07C62.2806 1938.47 34.23 1911.98 0 1911.98V1847.94C34.296 1847.94 62.3883 1821.41 64.7861 1787.79C62.3875 1754.1 34.2955 1727.52 0 1727.52V1663.86C34.3617 1663.86 62.4961 1637.22 64.7998 1603.52C62.4954 1569.74 34.3612 1543.05 0 1543.05V1479.78C34.4274 1479.78 62.6044 1453.04 64.8135 1419.24C62.6037 1385.37 34.4269 1358.58 0 1358.58V1295.7C34.4927 1295.7 62.7117 1268.86 64.8262 1234.97C62.712 1201.01 34.4929 1174.11 0 1174.11V1111.62C34.5587 1111.62 62.8185 1084.67 64.8369 1050.69C62.8178 1016.64 34.5582 989.643 0 989.643V927.535C34.6242 927.535 62.9252 900.49 64.8477 866.418C62.9245 832.275 34.6237 805.174 0 805.174V743.454C35.8687 743.454 64.953 714.43 64.9531 678.637C64.9531 671.996 63.9516 665.588 62.0918 659.556C52.0396 636.682 29.1825 620.706 2.59863 620.706C1.73258 620.706 0.866048 620.851 0 620.851V559.373C35.8688 559.373 64.953 530.349 64.9531 494.556C64.9531 458.762 35.8688 429.738 0 429.738V375.292C35.8688 375.292 64.9531 346.268 64.9531 310.475C64.9531 274.681 35.8688 245.657 0 245.657V191.066C0.866048 191.138 1.73258 191.211 2.59863 191.211C38.4672 191.211 67.5517 162.187 67.5518 126.394C67.5518 90.6002 38.4672 61.5764 2.59863 61.5762C1.73258 61.5762 0.866048 61.7207 0 61.7207V1.72852H65.0254L66.0361 0C66.7578 35.2174 95.4822 63.5205 130.918 63.5205C166.354 63.5203 195.077 35.2173 195.799 0H260.753Z" fill="white"/>
</svg>
