<svg width="1820" height="1742" viewBox="0 0 1820 1742" fill="none" xmlns="http://www.w3.org/2000/svg">
<path d="M260.753 0C261.475 35.2173 290.198 63.5203 325.634 63.5205C361.07 63.5205 389.794 35.2174 390.516 0H455.469C456.19 35.2174 484.915 63.5205 520.351 63.5205C555.786 63.5205 584.511 35.2174 585.232 0H650.186C650.907 35.2174 679.632 63.5205 715.067 63.5205C750.503 63.5203 779.227 35.2173 779.948 0H844.902C845.624 35.2173 874.348 63.5203 909.783 63.5205C945.219 63.5205 973.943 35.2174 974.665 0H1039.62C1040.34 35.2174 1069.06 63.5205 1104.5 63.5205C1139.94 63.5204 1168.66 35.2173 1169.38 0H1234.33C1235.06 35.2174 1263.78 63.5205 1299.22 63.5205C1334.65 63.5203 1363.38 35.2173 1364.1 0H1429.05C1429.77 35.2173 1458.5 63.5204 1493.93 63.5205C1529.37 63.5205 1558.09 35.2174 1558.81 0H1623.77V1.2959C1623.77 37.0894 1652.85 66.1133 1688.72 66.1133C1724.59 66.1132 1753.67 37.0893 1753.67 1.2959V0H1787.86C1797.04 4.94955 1807.54 7.76074 1818.7 7.76074H1820V59.9199C1788.14 60.5701 1761.93 83.9963 1757.13 114.564C1755.35 119.849 1754.23 125.438 1753.87 131.232C1755.98 165.133 1784.2 191.985 1818.7 191.985H1820V244.001H1818.7C1782.83 244.001 1753.75 273.025 1753.75 308.818C1753.75 310.686 1753.83 312.535 1753.98 314.362C1753.95 314.79 1753.91 315.22 1753.88 315.65C1756.08 349.46 1784.27 376.211 1818.7 376.211H1820V428.226H1818.7C1782.83 428.226 1753.75 457.249 1753.75 493.043C1753.75 494.979 1753.83 496.896 1754 498.789C1753.96 499.215 1753.93 499.641 1753.9 500.069C1756.19 533.787 1784.33 560.436 1818.7 560.436H1820V619.046C1794.04 619.577 1771.83 635.261 1761.9 657.622C1757.42 665.68 1754.6 674.79 1753.91 684.488C1756.3 718.114 1784.4 744.66 1818.7 744.66H1820V803.515H1818.7C1784 803.515 1755.65 830.731 1753.84 864.977C1753.89 865.861 1753.95 866.741 1754.03 867.616C1753.99 868.045 1753.96 868.476 1753.93 868.907C1756.41 902.442 1784.46 928.886 1818.7 928.886H1820V988.127H1818.7C1784.07 988.127 1755.76 1015.24 1753.85 1049.4C1753.9 1050.28 1753.97 1051.16 1754.05 1052.03C1754.01 1052.46 1753.97 1052.89 1753.94 1053.33C1756.51 1086.77 1784.53 1113.11 1818.7 1113.11H1820V1172.74H1818.7C1784.13 1172.74 1755.87 1199.75 1753.86 1233.81C1753.91 1234.69 1753.99 1235.57 1754.07 1236.44C1753.86 1238.59 1753.75 1240.77 1753.75 1242.98C1753.75 1278.85 1782.83 1307.93 1818.7 1307.93H1820V1357.35H1818.7C1784.2 1357.35 1755.98 1384.26 1753.87 1418.23C1753.93 1419.12 1754 1419.99 1754.09 1420.87C1753.86 1423.08 1753.75 1425.32 1753.75 1427.59C1753.75 1463.46 1782.83 1492.55 1818.7 1492.55H1820V1541.96H1818.7C1784.27 1541.96 1756.08 1568.77 1753.88 1602.65C1753.94 1603.54 1754.02 1604.42 1754.11 1605.29C1753.87 1607.56 1753.75 1609.87 1753.75 1612.21C1753.75 1648.08 1782.83 1677.16 1818.7 1677.16H1820V1726.58H1818.7C1802.58 1726.58 1787.82 1732.46 1776.46 1742.19H1753.67C1752.95 1706.9 1724.23 1678.53 1688.79 1678.53C1653.36 1678.53 1624.63 1706.9 1623.91 1742.19H1558.96V1740.89C1558.96 1705.02 1529.87 1675.93 1494 1675.93C1458.14 1675.93 1429.05 1705.02 1429.05 1740.89V1742.19H1364.1V1740.89C1364.1 1705.02 1335.01 1675.93 1299.14 1675.93C1263.28 1675.93 1234.19 1705.02 1234.19 1740.89V1742.19H1169.24V1740.89C1169.24 1705.02 1140.15 1675.93 1104.28 1675.93C1068.41 1675.93 1039.33 1705.02 1039.33 1740.89V1742.19H974.376V1740.89C974.376 1705.02 945.292 1675.93 909.423 1675.93C873.554 1675.93 844.469 1705.02 844.469 1740.89V1742.19H779.516V1740.89C779.516 1705.02 750.43 1675.93 714.562 1675.93C678.693 1675.93 649.609 1705.02 649.608 1740.89V1742.19H584.654V1740.89C584.654 1705.02 555.57 1675.93 519.701 1675.93C483.832 1675.93 454.747 1705.02 454.747 1740.89V1742.19H389.794V1740.89C389.794 1705.02 360.709 1675.93 324.84 1675.93C288.971 1675.93 259.887 1705.02 259.887 1740.89V1742.19H194.933V1740.89C194.932 1705.02 165.848 1675.93 129.979 1675.93C94.1107 1675.93 65.0255 1705.02 65.0254 1740.89V1742.19H41.1152C29.9165 1733.02 15.6003 1727.52 0 1727.52V1677.23C35.8687 1677.23 64.9529 1648.15 64.9531 1612.28C64.9531 1610.04 64.8398 1607.82 64.6182 1605.64C64.6897 1604.94 64.7511 1604.23 64.7998 1603.52C62.4954 1569.74 34.3612 1543.05 0 1543.05V1492.76C35.8688 1492.76 64.9531 1463.68 64.9531 1427.81C64.9531 1425.64 64.8451 1423.49 64.6367 1421.37C64.7064 1420.67 64.7668 1419.96 64.8135 1419.24C62.6037 1385.37 34.4269 1358.58 0 1358.58V1308.3C35.8687 1308.3 64.9529 1279.21 64.9531 1243.34C64.9531 1241.24 64.852 1239.16 64.6562 1237.1C64.724 1236.4 64.7815 1235.68 64.8262 1234.97C62.712 1201.01 34.4929 1174.11 0 1174.11V1113.18C34.0984 1113.18 62.0644 1086.95 64.7422 1053.61C64.7211 1053.35 64.698 1053.09 64.6738 1052.83C64.7393 1052.12 64.7945 1051.41 64.8369 1050.69C62.8178 1016.64 34.5582 989.643 0 989.643V929.102C34.1644 929.102 62.1739 902.771 64.7588 869.339C64.7382 869.072 64.7152 868.805 64.6914 868.539C64.7542 867.835 64.8076 867.128 64.8477 866.418C62.9245 832.275 34.6237 805.174 0 805.174V745.021C34.2299 745.021 62.2804 718.589 64.7725 685.065C64.753 684.803 64.7316 684.541 64.709 684.279C64.8697 682.42 64.9531 680.538 64.9531 678.637C64.9531 671.996 63.9516 665.588 62.0918 659.556C52.0396 636.682 29.1825 620.706 2.59863 620.706C1.73258 620.706 0.866048 620.851 0 620.851V560.939C34.296 560.939 62.3883 534.406 64.7861 500.79C64.7674 500.527 64.7475 500.264 64.7256 500.002C64.8753 498.206 64.9531 496.39 64.9531 494.556C64.9531 458.762 35.8688 429.738 0 429.738V376.858C34.3617 376.858 62.4961 350.223 64.7998 316.516C64.7819 316.253 64.7622 315.991 64.7412 315.729C64.8806 313.996 64.9531 312.244 64.9531 310.475C64.9531 274.681 35.8688 245.657 0 245.657V192.777C12.8112 192.777 24.7562 189.074 34.8203 182.683C54.374 171.511 67.5517 150.486 67.5518 126.394C67.5518 90.6002 38.4672 61.5764 2.59863 61.5762C1.73258 61.5762 0.866048 61.7207 0 61.7207V8.69629C10.551 8.69629 20.5149 6.18475 29.3242 1.72852H65.0254L66.0361 0C66.7578 35.2174 95.4822 63.5205 130.918 63.5205C166.354 63.5203 195.077 35.2173 195.799 0H260.753Z" fill="white"/>
</svg>
