<svg width="3030" height="1820" viewBox="0 0 3030 1820" fill="none" xmlns="http://www.w3.org/2000/svg">
<path d="M3.10945e-06 1559.25C35.2173 1558.53 63.5203 1529.8 63.5205 1494.37C63.5205 1458.93 35.2174 1430.21 4.65685e-06 1429.48L5.43141e-06 1364.53C35.2174 1363.81 63.5205 1335.09 63.5205 1299.65C63.5205 1264.21 35.2174 1235.49 6.97883e-06 1234.77L7.75339e-06 1169.81C35.2174 1169.09 63.5205 1140.37 63.5205 1104.93C63.5203 1069.5 35.2173 1040.77 9.30079e-06 1040.05L1.00754e-05 975.098C35.2173 974.376 63.5204 945.652 63.5205 910.217C63.5205 874.781 35.2174 846.057 1.16228e-05 845.335L1.23973e-05 780.382C35.2174 779.66 63.5205 750.936 63.5205 715.5C63.5205 680.064 35.2173 651.34 1.39447e-05 650.618L1.47193e-05 585.665C35.2174 584.943 63.5205 556.219 63.5205 520.783C63.5203 485.348 35.2173 456.624 1.62667e-05 455.902L1.70413e-05 390.948C35.2173 390.227 63.5204 361.503 63.5205 326.067C63.5205 290.632 35.2174 261.907 1.85887e-05 261.186L1.93632e-05 196.232L1.29592 196.232C37.0894 196.232 66.1133 167.147 66.1133 131.278C66.1132 95.4097 37.0894 66.3252 1.29592 66.3252L2.09124e-05 66.3252L2.17033e-05 0L59.9199 7.14538e-07C60.6401 35.2914 89.3037 63.6542 124.665 63.6543C160.026 63.6543 188.69 35.2915 189.41 2.25869e-06L244.001 2.90968e-06L244.001 1.29883C244.001 37.1676 273.025 66.2529 308.818 66.2529C344.612 66.2529 373.636 37.1676 373.636 1.29883L373.636 4.45556e-06L428.226 5.10654e-06L428.226 1.29883C428.226 37.1676 457.249 66.2529 493.043 66.2529C528.837 66.2529 557.86 37.1676 557.86 1.29883L557.86 6.65242e-06L619.046 7.38205e-06C619.768 35.2915 648.492 63.6543 683.928 63.6543C690.927 63.6543 697.663 62.5477 703.975 60.5C726.448 50.3012 742.085 27.6271 742.085 1.29884L742.085 8.84927e-06L803.515 9.58182e-06L803.515 1.29884C803.515 35.9963 830.731 64.3456 864.977 66.1602C899.151 64.3461 926.311 35.9966 926.311 1.29884L926.311 1.10461e-05L988.127 1.17833e-05L988.127 1.29884C988.127 35.931 1015.24 64.2387 1049.4 66.1494C1083.48 64.2387 1110.54 35.931 1110.54 1.29884L1110.54 1.3243e-05L1172.74 1.39848e-05L1172.74 1.29884C1172.74 35.8651 1199.75 64.1305 1233.81 66.1377C1267.81 64.131 1294.76 35.8655 1294.76 1.29884L1294.76 1.54399e-05L1357.35 1.61863e-05L1357.35 1.29884C1357.35 35.7996 1384.26 64.0242 1418.23 66.127C1452.13 64.0246 1478.99 35.7998 1478.99 1.29885L1478.99 1.76367e-05L1541.96 1.83877e-05L1541.96 1.29885C1541.96 35.7337 1568.77 63.9169 1602.65 66.1153C1636.46 63.918 1663.21 35.7344 1663.21 1.29885L1663.21 1.98336e-05L1726.58 2.05892e-05L1726.58 1.29885C1726.58 35.6681 1753.28 63.8087 1787.07 66.1016C1820.79 63.8092 1847.44 35.6685 1847.44 1.29885L1847.44 2.20304e-05L1911.19 2.27907e-05L1911.19 1.29885C1911.19 35.6023 1937.79 63.7008 1971.49 66.0879C2005.11 63.7011 2031.66 35.6026 2031.66 1.29885L2031.66 2.42273e-05L2095.8 2.49922e-05L2095.8 1.29885C2095.8 35.5365 2122.3 63.5933 2155.91 66.0742C2189.44 63.5934 2215.89 35.5366 2215.89 1.29885L2215.89 2.64242e-05L2280.42 2.71937e-05L2280.42 1.29886C2280.42 35.4705 2306.81 63.486 2340.33 66.0606C2373.77 63.4866 2400.11 35.471 2400.11 1.29886L2400.11 2.8621e-05L2465.03 2.93952e-05L2465.03 1.29886C2465.03 37.1676 2494.11 66.253 2529.98 66.253C2565.85 66.2528 2594.93 37.1676 2594.93 1.29886L2594.93 3.09443e-05L2649.64 3.15966e-05L2649.64 1.29886C2649.64 37.1676 2678.73 66.2528 2714.59 66.253C2750.46 66.253 2779.55 37.1676 2779.55 1.29886L2779.55 3.31458e-05L2834.25 3.37981e-05L2834.25 1.29886C2834.25 37.1676 2863.34 66.253 2899.21 66.253C2935.08 66.2527 2964.16 37.1675 2964.16 1.29886L2964.16 3.53473e-05L3029.19 3.61227e-05L3029.19 66.3252C2993.9 67.0469 2965.53 95.7704 2965.53 131.206C2965.53 166.642 2993.9 195.366 3029.19 196.088L3029.19 261.041L3027.89 261.041C2992.02 261.041 2962.93 290.126 2962.93 325.995C2962.93 361.864 2992.02 390.948 3027.89 390.948L3029.19 390.948L3029.19 455.902L3027.89 455.902C2992.02 455.903 2962.93 484.987 2962.93 520.856C2962.93 556.724 2992.02 585.809 3027.89 585.81L3029.19 585.81L3029.19 650.763L3027.89 650.763C2992.02 650.763 2962.93 679.848 2962.93 715.717C2962.93 751.585 2992.02 780.67 3027.89 780.67L3029.19 780.67L3029.19 845.624L3027.89 845.624C2992.02 845.624 2962.93 874.709 2962.93 910.577C2962.93 946.446 2992.02 975.531 3027.89 975.531L3029.19 975.531L3029.19 1040.48L3027.89 1040.48C2992.02 1040.48 2962.93 1069.57 2962.93 1105.44C2962.93 1141.31 2992.02 1170.39 3027.89 1170.39L3029.19 1170.39L3029.19 1235.35L3027.89 1235.35C2992.02 1235.35 2962.93 1264.43 2962.93 1300.3C2962.93 1336.17 2992.02 1365.25 3027.89 1365.25L3029.19 1365.25L3029.19 1430.21L3027.89 1430.21C2992.02 1430.21 2962.93 1459.29 2962.93 1495.16C2962.93 1531.03 2992.02 1560.11 3027.89 1560.11L3029.19 1560.11L3029.19 1625.07L3027.89 1625.07C2992.02 1625.07 2962.93 1654.15 2962.93 1690.02C2962.93 1725.89 2992.02 1754.97 3027.89 1754.97L3029.19 1754.97L3029.19 1820L2964.23 1820C2964.23 1784.13 2935.15 1755.05 2899.28 1755.05C2863.41 1755.05 2834.33 1784.13 2834.33 1820L2779.76 1820C2779.76 1784.13 2750.68 1755.05 2714.81 1755.05C2678.94 1755.05 2649.86 1784.13 2649.86 1820L2595.3 1820C2595.3 1784.13 2566.21 1755.05 2530.34 1755.05C2494.47 1755.05 2465.39 1784.13 2465.39 1820L2400.18 1820C2400.18 1785.9 2373.95 1757.94 2340.61 1755.26C2307.2 1757.94 2280.92 1785.9 2280.92 1820L2216.1 1820C2216.1 1785.84 2189.77 1757.83 2156.34 1755.24C2122.84 1757.83 2096.45 1785.84 2096.45 1820L2032.02 1820C2032.02 1785.77 2005.59 1757.72 1972.07 1755.23C1938.47 1757.72 1911.98 1785.77 1911.98 1820L1847.94 1820C1847.94 1785.7 1821.41 1757.61 1787.79 1755.21C1754.1 1757.61 1727.52 1785.7 1727.52 1820L1663.86 1820C1663.86 1785.64 1637.22 1757.5 1603.52 1755.2C1569.74 1757.5 1543.05 1785.64 1543.05 1820L1479.78 1820C1479.78 1785.57 1453.04 1757.4 1419.24 1755.19C1385.37 1757.4 1358.58 1785.57 1358.58 1820L1295.7 1820C1295.7 1785.51 1268.86 1757.29 1234.97 1755.17C1201.01 1757.29 1174.11 1785.51 1174.11 1820L1111.62 1820C1111.62 1785.44 1084.67 1757.18 1050.69 1755.16C1016.64 1757.18 989.643 1785.44 989.643 1820L927.535 1820C927.535 1785.38 900.49 1757.07 866.418 1755.15C832.275 1757.08 805.174 1785.38 805.174 1820L743.454 1820C743.454 1784.13 714.43 1755.05 678.637 1755.05C671.996 1755.05 665.588 1756.05 659.556 1757.91C636.682 1767.96 620.706 1790.82 620.706 1817.4C620.706 1818.27 620.851 1819.13 620.851 1820L559.373 1820C559.373 1784.13 530.349 1755.05 494.556 1755.05C458.762 1755.05 429.738 1784.13 429.738 1820L375.292 1820C375.292 1784.13 346.268 1755.05 310.475 1755.05C274.681 1755.05 245.657 1784.13 245.657 1820L191.066 1820C191.138 1819.13 191.211 1818.27 191.211 1817.4C191.211 1781.53 162.187 1752.45 126.394 1752.45C90.6002 1752.45 61.5764 1781.53 61.5762 1817.4C61.5762 1818.27 61.7207 1819.13 61.7207 1820L1.72852 1820L1.72852 1754.97L7.87473e-07 1753.96C35.2174 1753.24 63.5205 1724.52 63.5205 1689.08C63.5203 1653.65 35.2173 1624.92 2.33488e-06 1624.2L3.10945e-06 1559.25Z" fill="white"/>
</svg>
